<svg width="50" height="50" viewBox="0 0 50 50" fill="none" xmlns="http://www.w3.org/2000/svg">
<path d="M49.9855 2.8572C49.9439 2.3364 49.569 1.89897 49.0689 1.77393C39.4965 -0.715585 34.6114 4.31538 32.5594 7.52352C31.4657 9.24215 31.0699 11.1379 31.4241 12.94C30.5179 12.8461 29.5283 12.9816 28.4451 13.3773C27.3575 13.7767 26.1447 14.4525 24.8086 15.386L33.4986 24.0758C34.4318 22.7397 35.1078 21.5269 35.5072 20.4393C35.8405 19.5226 35.9968 18.6687 35.9863 17.877C36.4654 18.0018 36.955 18.0852 37.4549 18.0852C37.7362 18.0852 38.0278 18.0644 38.3091 18.0227C43.7671 17.1998 44.6316 10.9605 44.6629 10.6897C45.2046 6.47124 48.0898 4.66925 49.3085 4.08604C49.7668 3.85711 50.0376 3.378 49.9855 2.8572Z" fill="#B1986E"/>
<path d="M47.673 36.4281L38.1424 26.9078L33.2614 31.7888L29.913 28.4411C30.7782 27.5002 31.5558 26.6038 32.2335 25.7566L23.1278 16.651C22.2807 17.3286 21.3843 18.1061 20.4437 18.9712L8.9149 7.44226V3.97166C8.9149 3.60712 8.72745 3.26341 8.41495 3.07585L3.52976 0.149006C3.12353 -0.100971 2.59226 -0.0280834 2.25903 0.305149L0.300785 2.25313C-0.032554 2.59673 -0.0950748 3.11753 0.144535 3.53423L3.07148 8.40895C3.26941 8.72145 3.60275 8.91938 3.9673 8.91938H7.44614L18.9327 20.406C18.6674 20.6646 18.406 20.9159 18.1331 21.1894C12.4147 26.9078 -3.00108 44.6777 0.60281 48.2816C0.936148 48.6253 1.41526 48.8961 2.19651 48.8961C3.79021 48.8961 6.64416 47.7816 12.2376 43.8235C17.2789 40.2508 23.2057 35.2406 27.6951 30.7512C27.9685 30.4785 28.2196 30.2172 28.4782 29.9522L31.7884 33.2617L26.9034 38.1466L36.4341 47.6668C37.934 49.1668 39.9235 50 42.0484 50C44.1733 50 46.1627 49.1668 47.673 47.6668C50.7666 44.5734 50.7666 39.5322 47.673 36.4281ZM38.2329 39.7067L36.7602 38.2338L38.2329 36.761L39.7058 38.2338L38.2329 39.7067ZM41.9152 43.3899L40.4423 41.9161L41.9163 40.4432L43.3891 41.917L41.9152 43.3899Z" fill="#B1986E"/>
</svg>
