<svg width="50" height="50" viewBox="0 0 50 50" fill="none" xmlns="http://www.w3.org/2000/svg">
<path d="M50 42.7084V36.4565H0V42.7084H15.625V47.9167H11.4584V50H38.5417V47.9167H34.375V42.7084H50Z" fill="#B1986E"/>
<path d="M41.6668 10.4146H35.4167V18.7479H41.6668V10.4146Z" fill="#B1986E"/>
<path d="M38.5418 2.52087L35.4167 6.32291V8.33152H41.6668V6.32291L38.5418 2.52087Z" fill="#B1986E"/>
<path d="M41.6668 20.8312H35.4167V24.9979H41.6668V20.8312Z" fill="#B1986E"/>
<path d="M33.3334 27.0814V0H8.3333V27.0814H6.25V29.1648H43.7501V27.0814H33.3334ZM25.4171 24.9981H16.2496V22.9148H25.4171V24.9981ZM28.8543 20.8314H12.8123V18.7481H28.8543V20.8314ZM29.1666 15.6232H12.5V4.16481H29.1667V15.6232H29.1666Z" fill="#B1986E"/>
<path d="M20.8332 11.1321L17.0879 13.5397H24.5786L20.8332 11.1321Z" fill="#B1986E"/>
<path d="M22.7593 9.89399L27.0833 12.6736V7.11414L22.7593 9.89399Z" fill="#B1986E"/>
<path d="M14.5833 7.11414V12.6736L18.9073 9.89399L14.5833 7.11414Z" fill="#B1986E"/>
<path d="M43.75 6.25V8.3315V10.4148V18.7481V20.8314V24.9981H45.8334V31.2481H4.16671V24.9981H6.25001V6.25H0V34.3731H50V6.25H43.75Z" fill="#B1986E"/>
<path d="M17.0879 6.24811L20.8332 8.65588L24.5786 6.24811H17.0879Z" fill="#B1986E"/>
</svg>
