<svg width="55" height="50" viewBox="0 0 55 50" fill="none" xmlns="http://www.w3.org/2000/svg">
<path d="M54.5454 42.0455V36.3598H0V42.0455H17.0454V47.7273H12.5V50H42.0455V47.7273H37.5V42.0455H54.5454Z" fill="#B1986E"/>
<path d="M0 0V34.087H54.5454V0H0ZM44.7887 23.8598H40.4385L38.6363 22.0575L34.659 26.0348L31.3475 22.7234H25.0572C23.3797 26.0854 19.9143 28.4053 15.909 28.4053C10.2698 28.4053 5.68173 23.8177 5.68173 18.1781C5.68173 12.5385 10.2699 7.95084 15.909 7.95084C20.3515 7.95084 24.1311 10.8032 25.5395 14.769H44.7886L49.3341 19.3145L44.7887 23.8598Z" fill="#B1986E"/>
<path d="M12.5002 20.4511C13.7554 20.4511 14.7729 19.4336 14.7729 18.1784C14.7729 16.9232 13.7554 15.9057 12.5002 15.9057C11.2451 15.9057 10.2275 16.9232 10.2275 18.1784C10.2275 19.4336 11.2451 20.4511 12.5002 20.4511Z" fill="#B1986E"/>
</svg>
