<svg width="64" height="50" viewBox="0 0 64 50" fill="none" xmlns="http://www.w3.org/2000/svg">
<path d="M2.63135 0V39.4737H60.5261V0H2.63135ZM34.2103 10.5239H53.9471V13.1554H34.2103V10.5239ZM42.1051 17.1028V19.7344H38.1578V17.1028H42.1051ZM35.5261 17.1028V19.7344H19.7366V17.1028H35.5261ZM31.5788 13.1555H26.3156V10.524H31.5788V13.1555ZM23.684 3.94503H30.263V6.57657H23.684V3.94503ZM9.21032 3.94503H21.0524V6.57657H9.21032V3.94503ZM9.21032 10.5239H23.684V13.1554H9.21032V10.5239ZM9.21032 17.1028H17.1051V19.7344H9.21032V17.1028ZM9.21032 23.6818H21.0524V26.3134H9.21032V23.6818ZM28.9471 35.5239H9.21032V32.8923H28.9471V35.5239ZM30.263 26.3134H23.684V23.6818H30.263V26.3134ZM39.7459 31.3041L37.8853 33.1647L32.3496 27.6291L37.8853 22.0934L39.7457 23.954L36.0708 27.629L39.7459 31.3041ZM42.6691 34.6964L40.2252 33.7198L45.4884 20.5619L47.9324 21.5385L42.6691 34.6964ZM50.2722 33.1647L48.4117 31.3041L52.0865 27.6293L48.4117 23.9543L50.2722 22.0937L55.8078 27.6294L50.2722 33.1647Z" fill="#B1986E"/>
<path d="M0 42.1052V45.1315L3.23677 50H59.9209L63.1578 45.1315V42.1052H0ZM27.6315 47.366H25V44.7345H27.6315V47.366ZM32.8947 47.366H30.2632V44.7345H32.8947V47.366ZM38.1578 47.366H35.5263V44.7345H38.1578V47.366Z" fill="#B1986E"/>
</svg>
