<svg display="none" xmlns="http://www.w3.org/2000/svg">
	<symbol id="svg-logo" viewBox="0 0 200 37">
		<path d="M14.474 12.4566V13.2524H0V12.4566H1.79537V0.314652H6.23753C8.55733 0.314652 10.3404 0.882263 11.5866 2.01748C12.8329 3.14036 13.456 4.72596 13.456 6.77429C13.456 9.52596 12.3702 11.4201 10.1985 12.4566H14.474ZM11.2535 6.77429C11.2535 3.81285 9.55681 2.33213 6.1635 2.33213H3.97943V11.1979H6.40411C7.97121 11.1979 9.16812 10.8278 9.99486 10.0874C10.8339 9.3347 11.2535 8.23033 11.2535 6.77429ZM32.6726 12.4566V13.2524H28.6932V3.14653L24.177 12.1234H22.9554L18.4577 3.14653V13.2524H14.4783V12.4566H16.2736V0.314652H19.6793L23.5847 8.4401L27.4901 0.314652H30.8772V12.4566H32.6726ZM34.4753 12.4566V0.314652H36.6594V12.4566H38.4548V13.2524H32.6799V12.4566H34.4753ZM49.6253 12.4566V13.2524H38.4459V12.4566H42.9436V2.31363H39.0197V0.314652H49.0516V2.31363H45.1277V12.4566H49.6253ZM63.5537 12.4566V13.2524H59.5558L56.4648 8.90283H53.5959V13.2524H49.6164V12.4566H51.4118V0.314652H56.2242C58.1985 0.314652 59.6113 0.647815 60.4627 1.31414C61.3141 1.98046 61.7398 3.04782 61.7398 4.5162C61.7398 6.6509 60.8082 7.99589 58.945 8.55116L61.7584 12.4566H63.5537ZM56.3167 6.92237C57.5506 6.92237 58.3897 6.73111 58.8339 6.34859C59.2781 5.96607 59.5003 5.35527 59.5003 4.5162C59.5003 3.66478 59.272 3.08483 58.8154 2.77635C58.3589 2.45553 57.5445 2.29512 56.3722 2.29512H53.5959V6.92237H56.3167ZM67.5116 12.4566V8.14396L62.6992 0.314652H65.0869L68.6221 6.20051L72.1573 0.314652H74.545L69.7327 8.14396V12.4566H74.3969V13.2524H62.8473V12.4566H67.5116ZM79.4689 12.4566V13.2524H74.3974V12.4566H79.4689ZM92.1368 12.4566V13.2524H79.4766V12.4566H81.272V0.314652H85.7141C87.6761 0.314652 89.1075 0.691003 90.0082 1.4437C90.909 2.1964 91.3594 3.3563 91.3594 4.92339C91.3594 6.49049 90.8967 7.63805 89.9712 8.36607C89.0581 9.09409 87.6514 9.4581 85.7512 9.4581H83.456V12.4566H92.1368ZM85.9918 7.47764C87.201 7.47764 88.0216 7.24936 88.4535 6.7928C88.8977 6.32391 89.1198 5.64524 89.1198 4.75681C89.1198 3.85604 88.8422 3.22057 88.2869 2.85039C87.7316 2.48021 86.8617 2.29512 85.6771 2.29512H83.456V7.47764H85.9918ZM106.953 12.4566V13.2524H102.826L101.53 10.3095H95.0519L93.7563 13.2524H89.6288V12.4566H91.7758L97.1249 0.314652H99.4571L104.806 12.4566H106.953ZM100.642 8.29203L98.291 2.96144L95.9404 8.29203H100.642ZM116.822 12.4566V13.2524H105.161V12.4566H107.531C106.938 12.1481 106.395 11.7656 105.902 11.309L107.271 9.6617C108.579 10.7969 109.937 11.3645 111.343 11.3645C112.047 11.3645 112.602 11.2165 113.009 10.9203C113.429 10.6118 113.639 10.2108 113.639 9.71722C113.639 9.21131 113.441 8.82262 113.046 8.55116C112.664 8.26735 111.997 8.0144 111.047 7.79229C110.097 7.55784 109.375 7.34807 108.882 7.16298C108.388 6.96555 107.95 6.7126 107.568 6.40411C106.803 5.82417 106.42 4.93573 106.42 3.73882C106.42 2.5419 106.852 1.62262 107.716 0.980977C108.592 0.326992 109.671 0 110.955 0C111.781 0 112.602 0.135733 113.416 0.407198C114.231 0.678664 114.934 1.06118 115.526 1.55476L114.36 3.20206C113.978 2.85656 113.46 2.57275 112.806 2.35064C112.152 2.12854 111.504 2.01748 110.862 2.01748C110.233 2.01748 109.715 2.14704 109.307 2.40617C108.9 2.6653 108.697 3.06015 108.697 3.59075C108.697 4.109 108.9 4.51003 109.307 4.79383C109.715 5.0653 110.578 5.36144 111.899 5.68226C113.231 6.00309 114.231 6.45347 114.897 7.03342C115.576 7.61337 115.915 8.42776 115.915 9.47661C115.915 10.7476 115.446 11.7409 114.508 12.4566H116.822ZM131.202 12.4566H129.406V0.314652H127.222V5.92288H120.799V0.314652H118.615V13.2524H120.799V7.95887H127.222V13.2524H131.202V12.4566ZM118.615 12.4566V13.2524H116.82V12.4566H118.615ZM133.003 12.4566V0.314652H135.187V6.62622L141.11 0.314652H143.886L138.685 5.97841L143.387 12.4751V12.4566H145.182V13.2524H141.369L137.075 7.58869L135.187 9.62468V13.2524H131.208V12.4566H133.003ZM159.209 12.4566V13.2524H143.662V12.4566H147.9C146.888 11.8766 146.086 11.0807 145.494 10.0689C144.914 9.05707 144.624 7.92802 144.624 6.68175C144.624 4.78149 145.278 3.19589 146.586 1.92494C147.894 0.641646 149.511 0 151.435 0C153.36 0 154.977 0.641646 156.285 1.92494C157.593 3.19589 158.247 4.78149 158.247 6.68175C158.247 7.91568 157.951 9.04473 157.358 10.0689C156.778 11.0931 155.983 11.8889 154.971 12.4566H159.209ZM154.675 3.36864C153.798 2.45553 152.719 1.99897 151.435 1.99897C150.152 1.99897 149.066 2.45553 148.178 3.36864C147.302 4.28175 146.864 5.39229 146.864 6.70026C146.864 7.99589 147.302 9.10026 148.178 10.0134C149.066 10.9265 150.152 11.383 151.435 11.383C152.719 11.383 153.798 10.9265 154.675 10.0134C155.563 9.10026 156.007 7.99589 156.007 6.70026C156.007 5.39229 155.563 4.28175 154.675 3.36864ZM171.945 12.4566V13.2524H158.989V12.4566H163.913L159.045 0.314652H161.488L165.467 9.97635L169.447 0.314652H171.89L167.004 12.4566H171.945Z" fill="#B1986E"/>
		<path d="M81.568 20.2447L78.8986 28.1625H78.0164L75.6976 21.4098L73.3675 28.1625H72.4966L69.8271 20.2447H70.6868L72.9716 27.054L75.3356 20.2447H76.1161L78.4462 27.0879L80.7649 20.2447H81.568ZM87.6606 25.4365H82.6837C82.729 26.0548 82.9665 26.5563 83.3963 26.9409C83.8261 27.3179 84.3691 27.5064 85.0251 27.5064C85.3948 27.5064 85.7341 27.4423 86.0431 27.3141C86.3521 27.1784 86.62 26.9824 86.8462 26.726L87.2986 27.2463C87.0349 27.563 86.7027 27.8043 86.3032 27.9702C85.911 28.1361 85.4775 28.219 85.0025 28.219C84.3917 28.219 83.8487 28.0908 83.3737 27.8344C82.9063 27.5705 82.5403 27.2086 82.2765 26.7486C82.0128 26.2886 81.8806 25.7683 81.8806 25.1876C81.8806 24.607 82.005 24.0867 82.2539 23.6267C82.5104 23.1667 82.857 22.8086 83.2945 22.5522C83.7392 22.2958 84.2369 22.1676 84.7876 22.1676C85.3382 22.1676 85.8318 22.2958 86.2693 22.5522C86.7068 22.8086 87.0498 23.1667 87.2986 23.6267C87.5475 24.0792 87.6719 24.5995 87.6719 25.1876L87.6606 25.4365ZM84.7876 22.8576C84.2143 22.8576 83.732 23.0423 83.3397 23.4118C82.9552 23.7738 82.7367 24.2488 82.6837 24.837H86.9027C86.8498 24.2488 86.6277 23.7738 86.2354 23.4118C85.8508 23.0423 85.368 22.8576 84.7876 22.8576ZM92.3716 22.1676C92.93 22.1676 93.4349 22.2958 93.8873 22.5522C94.3397 22.801 94.6945 23.1554 94.9505 23.6154C95.2071 24.0754 95.3351 24.5995 95.3351 25.1876C95.3351 25.7758 95.2071 26.2999 94.9505 26.7599C94.6945 27.2199 94.3397 27.578 93.8873 27.8344C93.4349 28.0908 92.93 28.219 92.3716 28.219C91.8739 28.219 91.4256 28.1135 91.0256 27.9023C90.6338 27.6911 90.3171 27.3857 90.0755 26.9861V28.1625H89.3063V19.7697H90.1094V23.3439C90.3583 22.9594 90.675 22.669 91.0595 22.473C91.4518 22.2694 91.8894 22.1676 92.3716 22.1676ZM92.3151 27.5064C92.73 27.5064 93.1068 27.4122 93.4462 27.2236C93.7855 27.0276 94.0498 26.7523 94.2379 26.3979C94.4344 26.0435 94.532 25.6401 94.532 25.1876C94.532 24.7352 94.4344 24.3318 94.2379 23.9774C94.0498 23.623 93.7855 23.3515 93.4462 23.163C93.1068 22.9669 92.73 22.8689 92.3151 22.8689C91.893 22.8689 91.512 22.9669 91.1727 23.163C90.841 23.3515 90.5773 23.623 90.3809 23.9774C90.1927 24.3318 90.0981 24.7352 90.0981 25.1876C90.0981 25.6401 90.1927 26.0435 90.3809 26.3979C90.5773 26.7523 90.841 27.0276 91.1727 27.2236C91.512 27.4122 91.893 27.5064 92.3151 27.5064ZM98.5675 28.219C98.0847 28.219 97.621 28.1511 97.1763 28.0154C96.7387 27.8721 96.3958 27.695 96.1469 27.4838L96.5089 26.8504C96.7577 27.0464 97.0703 27.2086 97.4477 27.3368C97.8246 27.4574 98.2169 27.5177 98.6241 27.5177C99.167 27.5177 99.5665 27.4348 99.823 27.2689C100.087 27.0955 100.219 26.8541 100.219 26.545C100.219 26.3263 100.147 26.1566 100.004 26.036C99.8606 25.9078 99.6796 25.8135 99.4611 25.7532C99.2421 25.6853 98.9521 25.6212 98.5901 25.5609C98.1074 25.4704 97.7192 25.3799 97.4251 25.2894C97.131 25.1914 96.8781 25.0293 96.6673 24.8031C96.4637 24.5769 96.3619 24.2639 96.3619 23.8643C96.3619 23.3666 96.5691 22.9594 96.984 22.6427C97.3984 22.326 97.9752 22.1676 98.7146 22.1676C99.0991 22.1676 99.4837 22.2204 99.8683 22.326C100.253 22.424 100.57 22.5559 100.818 22.7218L100.468 23.3666C99.9773 23.0272 99.3932 22.8576 98.7146 22.8576C98.2014 22.8576 97.8133 22.9481 97.5495 23.129C97.293 23.31 97.1649 23.5475 97.1649 23.8416C97.1649 24.0679 97.2364 24.2488 97.3799 24.3846C97.5305 24.5203 97.7151 24.6221 97.9341 24.69C98.1526 24.7503 98.4544 24.8144 98.839 24.8823C99.314 24.9727 99.6945 25.0632 99.9814 25.1537C100.268 25.2442 100.513 25.3988 100.717 25.6175C100.92 25.8361 101.022 26.1378 101.022 26.5224C101.022 27.0427 100.803 27.4574 100.366 27.7666C99.9362 28.0682 99.3367 28.219 98.5675 28.219ZM102.506 22.2128H103.309V28.1625H102.506V22.2128ZM102.914 20.9121C102.748 20.9121 102.608 20.8555 102.495 20.7424C102.382 20.6293 102.325 20.4936 102.325 20.3352C102.325 20.1844 102.382 20.0524 102.495 19.9393C102.608 19.8262 102.748 19.7697 102.914 19.7697C103.08 19.7697 103.219 19.8262 103.332 19.9393C103.445 20.0449 103.502 20.1731 103.502 20.3239C103.502 20.4898 103.445 20.6293 103.332 20.7424C103.219 20.8555 103.08 20.9121 102.914 20.9121ZM108.677 27.8005C108.526 27.9362 108.338 28.0418 108.111 28.1172C107.893 28.1851 107.663 28.219 107.421 28.219C106.864 28.219 106.434 28.0682 106.132 27.7666C105.831 27.4649 105.68 27.0389 105.68 26.4884V22.8915H104.616V22.2128H105.68V20.9121H106.483V22.2128H108.292V22.8915H106.483V26.4432C106.483 26.7976 106.57 27.069 106.743 27.2576C106.924 27.4386 107.18 27.529 107.512 27.529C107.678 27.529 107.836 27.5027 107.987 27.4499C108.145 27.3971 108.281 27.3217 108.394 27.2236L108.677 27.8005ZM115.11 25.4365H110.133C110.178 26.0548 110.416 26.5563 110.846 26.9409C111.275 27.3179 111.818 27.5064 112.474 27.5064C112.844 27.5064 113.183 27.4423 113.492 27.3141C113.801 27.1784 114.069 26.9824 114.296 26.726L114.748 27.2463C114.484 27.563 114.152 27.8043 113.753 27.9702C113.36 28.1361 112.927 28.219 112.452 28.219C111.841 28.219 111.298 28.0908 110.823 27.8344C110.355 27.5705 109.99 27.2086 109.726 26.7486C109.462 26.2886 109.33 25.7683 109.33 25.1876C109.33 24.607 109.454 24.0867 109.703 23.6267C109.959 23.1667 110.306 22.8086 110.744 22.5522C111.189 22.2958 111.686 22.1676 112.237 22.1676C112.787 22.1676 113.281 22.2958 113.719 22.5522C114.156 22.8086 114.499 23.1667 114.748 23.6267C114.997 24.0792 115.121 24.5995 115.121 25.1876L115.11 25.4365ZM112.237 22.8576C111.664 22.8576 111.181 23.0423 110.789 23.4118C110.405 23.7738 110.186 24.2488 110.133 24.837H114.352C114.299 24.2488 114.077 23.7738 113.685 23.4118C113.3 23.0423 112.817 22.8576 112.237 22.8576ZM125.145 19.7697V28.1625H124.376V26.9861C124.135 27.3857 123.814 27.6911 123.415 27.9023C123.023 28.1135 122.578 28.219 122.08 28.219C121.522 28.219 121.017 28.0908 120.564 27.8344C120.112 27.578 119.758 27.2199 119.501 26.7599C119.245 26.2999 119.117 25.7758 119.117 25.1876C119.117 24.5995 119.245 24.0754 119.501 23.6154C119.758 23.1554 120.112 22.801 120.564 22.5522C121.017 22.2958 121.522 22.1676 122.08 22.1676C122.563 22.1676 122.996 22.2694 123.381 22.473C123.773 22.669 124.093 22.9594 124.342 23.3439V19.7697H125.145ZM122.148 27.5064C122.563 27.5064 122.936 27.4122 123.268 27.2236C123.607 27.0276 123.871 26.7523 124.06 26.3979C124.255 26.0435 124.354 25.6401 124.354 25.1876C124.354 24.7352 124.255 24.3318 124.06 23.9774C123.871 23.623 123.607 23.3515 123.268 23.163C122.936 22.9669 122.563 22.8689 122.148 22.8689C121.726 22.8689 121.345 22.9669 121.006 23.163C120.674 23.3515 120.41 23.623 120.214 23.9774C120.025 24.3318 119.931 24.7352 119.931 25.1876C119.931 25.6401 120.025 26.0435 120.214 26.3979C120.41 26.7523 120.674 27.0276 121.006 27.2236C121.345 27.4122 121.726 27.5064 122.148 27.5064ZM132.562 25.4365H127.586C127.631 26.0548 127.868 26.5563 128.298 26.9409C128.728 27.3179 129.271 27.5064 129.927 27.5064C130.297 27.5064 130.636 27.4423 130.945 27.3141C131.254 27.1784 131.522 26.9824 131.748 26.726L132.2 27.2463C131.937 27.563 131.605 27.8043 131.205 27.9702C130.813 28.1361 130.379 28.219 129.904 28.219C129.293 28.219 128.751 28.0908 128.275 27.8344C127.808 27.5705 127.442 27.2086 127.178 26.7486C126.915 26.2886 126.782 25.7683 126.782 25.1876C126.782 24.607 126.907 24.0867 127.156 23.6267C127.412 23.1667 127.759 22.8086 128.196 22.5522C128.641 22.2958 129.139 22.1676 129.689 22.1676C130.24 22.1676 130.734 22.2958 131.171 22.5522C131.609 22.8086 131.952 23.1667 132.2 23.6267C132.449 24.0792 132.574 24.5995 132.574 25.1876L132.562 25.4365ZM129.689 22.8576C129.116 22.8576 128.634 23.0423 128.242 23.4118C127.857 23.7738 127.638 24.2488 127.586 24.837H131.805C131.752 24.2488 131.529 23.7738 131.137 23.4118C130.753 23.0423 130.27 22.8576 129.689 22.8576ZM139.098 22.2128L136.451 28.1625H135.625L132.99 22.2128H133.827L136.055 27.2802L138.306 22.2128H139.098ZM145.243 25.4365H140.266C140.311 26.0548 140.549 26.5563 140.979 26.9409C141.409 27.3179 141.952 27.5064 142.608 27.5064C142.977 27.5064 143.317 27.4423 143.626 27.3141C143.935 27.1784 144.202 26.9824 144.429 26.726L144.881 27.2463C144.617 27.563 144.285 27.8043 143.886 27.9702C143.493 28.1361 143.06 28.219 142.585 28.219C141.974 28.219 141.431 28.0908 140.956 27.8344C140.489 27.5705 140.123 27.2086 139.859 26.7486C139.595 26.2886 139.463 25.7683 139.463 25.1876C139.463 24.607 139.588 24.0867 139.836 23.6267C140.093 23.1667 140.44 22.8086 140.877 22.5522C141.322 22.2958 141.819 22.1676 142.37 22.1676C142.921 22.1676 143.414 22.2958 143.852 22.5522C144.289 22.8086 144.632 23.1667 144.881 23.6267C145.13 24.0792 145.254 24.5995 145.254 25.1876L145.243 25.4365ZM142.37 22.8576C141.797 22.8576 141.315 23.0423 140.922 23.4118C140.538 23.7738 140.319 24.2488 140.266 24.837H144.485C144.432 24.2488 144.21 23.7738 143.818 23.4118C143.433 23.0423 142.951 22.8576 142.37 22.8576ZM146.889 19.7697H147.692V28.1625H146.889V19.7697ZM152.359 28.219C151.786 28.219 151.269 28.0908 150.809 27.8344C150.349 27.5705 149.987 27.2086 149.723 26.7486C149.459 26.2886 149.327 25.7683 149.327 25.1876C149.327 24.607 149.459 24.0867 149.723 23.6267C149.987 23.1667 150.349 22.8086 150.809 22.5522C151.269 22.2958 151.786 22.1676 152.359 22.1676C152.932 22.1676 153.448 22.2958 153.908 22.5522C154.368 22.8086 154.726 23.1667 154.983 23.6267C155.247 24.0867 155.379 24.607 155.379 25.1876C155.379 25.7683 155.247 26.2886 154.983 26.7486C154.726 27.2086 154.368 27.5705 153.908 27.8344C153.448 28.0908 152.932 28.219 152.359 28.219ZM152.359 27.5064C152.781 27.5064 153.158 27.4122 153.49 27.2236C153.829 27.0276 154.093 26.7523 154.282 26.3979C154.47 26.0435 154.564 25.6401 154.564 25.1876C154.564 24.7352 154.47 24.3318 154.282 23.9774C154.093 23.623 153.829 23.3515 153.49 23.163C153.158 22.9669 152.781 22.8689 152.359 22.8689C151.936 22.8689 151.556 22.9669 151.216 23.163C150.884 23.3515 150.62 23.623 150.425 23.9774C150.236 24.3318 150.142 24.7352 150.142 25.1876C150.142 25.6401 150.236 26.0435 150.425 26.3979C150.62 26.7523 150.884 27.0276 151.216 27.2236C151.556 27.4122 151.936 27.5064 152.359 27.5064ZM160.084 22.1676C160.642 22.1676 161.147 22.2958 161.599 22.5522C162.052 22.801 162.406 23.1554 162.663 23.6154C162.919 24.0754 163.047 24.5995 163.047 25.1876C163.047 25.7834 162.919 26.3112 162.663 26.7712C162.406 27.2312 162.052 27.5893 161.599 27.8457C161.154 28.0946 160.649 28.219 160.084 28.219C159.601 28.219 159.163 28.121 158.772 27.9249C158.387 27.7213 158.07 27.4272 157.822 27.0427V30.3568H157.018V22.2128H157.788V23.3892C158.029 22.9971 158.345 22.6955 158.738 22.4843C159.137 22.2732 159.586 22.1676 160.084 22.1676ZM160.027 27.5064C160.442 27.5064 160.819 27.4122 161.158 27.2236C161.498 27.0276 161.761 26.7523 161.95 26.3979C162.146 26.0435 162.244 25.6401 162.244 25.1876C162.244 24.7352 162.146 24.3356 161.95 23.9887C161.761 23.6343 161.498 23.359 161.158 23.163C160.819 22.9669 160.442 22.8689 160.027 22.8689C159.605 22.8689 159.224 22.9669 158.885 23.163C158.553 23.359 158.289 23.6343 158.093 23.9887C157.904 24.3356 157.81 24.7352 157.81 25.1876C157.81 25.6401 157.904 26.0435 158.093 26.3979C158.289 26.7523 158.553 27.0276 158.885 27.2236C159.224 27.4122 159.605 27.5064 160.027 27.5064ZM172.104 22.1676C172.851 22.1676 173.435 22.3825 173.858 22.8123C174.287 23.2421 174.502 23.8756 174.502 24.7126V28.1625H173.699V24.7918C173.699 24.1734 173.548 23.7021 173.247 23.3779C172.953 23.0536 172.534 22.8915 171.991 22.8915C171.373 22.8915 170.886 23.0838 170.532 23.4684C170.177 23.8454 170 24.3695 170 25.0406V28.1625H169.197V24.7918C169.197 24.1734 169.046 23.7021 168.745 23.3779C168.451 23.0536 168.028 22.8915 167.478 22.8915C166.867 22.8915 166.381 23.0838 166.019 23.4684C165.664 23.8454 165.487 24.3695 165.487 25.0406V28.1625H164.684V22.2128H165.453V23.2987C165.664 22.9367 165.958 22.6577 166.336 22.4617C166.713 22.2656 167.146 22.1676 167.636 22.1676C168.134 22.1676 168.564 22.2732 168.926 22.4843C169.295 22.6955 169.571 23.0084 169.752 23.4231C169.97 23.031 170.283 22.7256 170.69 22.5069C171.105 22.2807 171.576 22.1676 172.104 22.1676ZM181.883 25.4365H176.906C176.951 26.0548 177.189 26.5563 177.618 26.9409C178.048 27.3179 178.591 27.5064 179.247 27.5064C179.616 27.5064 179.956 27.4423 180.265 27.3141C180.574 27.1784 180.842 26.9824 181.068 26.726L181.521 27.2463C181.256 27.563 180.925 27.8043 180.525 27.9702C180.133 28.1361 179.7 28.219 179.225 28.219C178.614 28.219 178.071 28.0908 177.596 27.8344C177.128 27.5705 176.762 27.2086 176.499 26.7486C176.234 26.2886 176.103 25.7683 176.103 25.1876C176.103 24.607 176.227 24.0867 176.476 23.6267C176.732 23.1667 177.079 22.8086 177.517 22.5522C177.961 22.2958 178.459 22.1676 179.01 22.1676C179.56 22.1676 180.054 22.2958 180.491 22.5522C180.928 22.8086 181.272 23.1667 181.521 23.6267C181.77 24.0792 181.894 24.5995 181.894 25.1876L181.883 25.4365ZM179.01 22.8576C178.436 22.8576 177.954 23.0423 177.562 23.4118C177.177 23.7738 176.958 24.2488 176.906 24.837H181.125C181.072 24.2488 180.849 23.7738 180.457 23.4118C180.073 23.0423 179.59 22.8576 179.01 22.8576ZM186.56 22.1676C187.306 22.1676 187.898 22.3863 188.336 22.8236C188.78 23.2535 189.003 23.8831 189.003 24.7126V28.1625H188.2V24.7918C188.2 24.1734 188.045 23.7021 187.736 23.3779C187.427 23.0536 186.986 22.8915 186.413 22.8915C185.772 22.8915 185.263 23.0838 184.886 23.4684C184.516 23.8454 184.332 24.3695 184.332 25.0406V28.1625H183.528V22.2128H184.298V23.31C184.516 22.9481 184.818 22.669 185.202 22.473C185.595 22.2694 186.047 22.1676 186.56 22.1676ZM194.317 27.8005C194.165 27.9362 193.977 28.0418 193.751 28.1172C193.532 28.1851 193.302 28.219 193.061 28.219C192.503 28.219 192.073 28.0682 191.772 27.7666C191.47 27.4649 191.319 27.0389 191.319 26.4884V22.8915H190.256V22.2128H191.319V20.9121H192.122V22.2128H193.932V22.8915H192.122V26.4432C192.122 26.7976 192.209 27.069 192.382 27.2576C192.563 27.4386 192.819 27.529 193.152 27.529C193.317 27.529 193.475 27.5027 193.627 27.4499C193.785 27.3971 193.921 27.3217 194.034 27.2236L194.317 27.8005Z" fill="#B1986E"/>
		<path fill-rule="evenodd" clip-rule="evenodd" d="M0 17.9208V35.8746V36.9028H1.02828H198.972H200V35.8746V1.42726V0.398987H198.972H177.378V1.42726H198.972V35.8746H1.02828V17.9208H0Z" fill="#B1986E"/>
	</symbol>

	<symbol id="svg-phone" viewBox="0 0 30 30">
		<path d="M25.605 4.39179C19.7463 -1.46517 10.2488 -1.46376 4.3918 4.39502C-1.46517 10.2538 -1.46377 19.7512 4.39502 25.6082C10.2538 31.4652 19.7513 31.4638 25.6082 25.605C28.4211 22.7913 30.0009 18.9753 30 14.9968C29.9992 11.0189 28.4183 7.20417 25.605 4.39179ZM22.717 20.8948C22.7163 20.8955 22.7157 20.8962 22.715 20.8968V20.8918L21.955 21.6468C20.9721 22.6421 19.5406 23.0516 18.18 22.7268C16.8092 22.3599 15.506 21.7758 14.32 20.9968C13.2181 20.2926 12.1969 19.4693 11.275 18.5418C10.4267 17.6998 9.66464 16.7752 8.99996 15.7818C8.27293 14.7129 7.69748 13.5486 7.28996 12.3218C6.82279 10.8806 7.20992 9.29925 8.28998 8.23683L9.17996 7.34685C9.4274 7.09829 9.82947 7.09741 10.078 7.34486C10.0786 7.3455 10.0793 7.34614 10.08 7.34685L12.8899 10.1568C13.1385 10.4043 13.1394 10.8063 12.8919 11.0548C12.8913 11.0555 12.8906 11.0561 12.8899 11.0568L11.2399 12.7068C10.7665 13.1751 10.707 13.9192 11.1 14.4568C11.6967 15.2759 12.3571 16.0465 13.075 16.7619C13.8753 17.5656 14.7454 18.2968 15.675 18.9469C16.2121 19.3215 16.9403 19.2584 17.4049 18.7969L18.9999 17.1769C19.2474 16.9283 19.6494 16.9274 19.8979 17.1749C19.8986 17.1755 19.8992 17.1762 19.8999 17.1769L22.7149 19.9969C22.9635 20.2443 22.9644 20.6463 22.717 20.8948Z" fill="#B1986E"/>
	</symbol>
		
	<symbol id="svg-telega" viewBox="0 0 30 30">
		<path d="M15 30C23.2863 30 30 23.2863 30 15C30 6.71375 23.2863 0 15 0C6.71375 0 0 6.71375 0 15C0 23.2863 6.71375 30 15 30ZM6.86375 14.675L21.3263 9.09875C21.9975 8.85625 22.5837 9.2625 22.3662 10.2775L22.3675 10.2762L19.905 21.8775C19.7225 22.7 19.2337 22.9 18.55 22.5125L14.8 19.7487L12.9912 21.4913C12.7912 21.6913 12.6225 21.86 12.235 21.86L12.5013 18.0438L19.4513 11.765C19.7537 11.4987 19.3837 11.3488 18.985 11.6138L10.3963 17.0212L6.69375 15.8663C5.89 15.6112 5.8725 15.0625 6.86375 14.675Z" fill="#B1986E"/>
	</symbol>

	<symbol id="svg-vk" viewBox="0 0 30 30">
		<path d="M15 0C6.71601 0 0 6.7157 0 15C0 23.2843 6.71601 30 15 30C23.284 30 30 23.2843 30 15C30 6.7157 23.284 0 15 0ZM22.6088 16.6223C23.3079 17.3052 24.0476 17.9478 24.6752 18.7013C24.9532 19.0346 25.2153 19.3792 25.4148 19.7669C25.6996 20.3196 25.4425 20.9257 24.9477 20.9586L21.8747 20.958C21.081 21.0236 20.4494 20.7035 19.9169 20.1609C19.4919 19.7285 19.0975 19.2666 18.6881 18.8194C18.5208 18.6359 18.3447 18.4631 18.1347 18.3272C17.7158 18.0546 17.3518 18.1381 17.1118 18.5758C16.8672 19.0211 16.8114 19.5146 16.788 20.0102C16.7546 20.7348 16.5361 20.9242 15.809 20.9583C14.2554 21.031 12.7814 20.7953 11.4114 20.0121C10.2028 19.3212 9.26731 18.3462 8.45217 17.2423C6.86486 15.0902 5.64921 12.7283 4.55693 10.2985C4.3111 9.7513 4.49095 9.45852 5.09463 9.44716C6.0976 9.42783 7.10056 9.43028 8.10353 9.44624C8.51171 9.45268 8.78179 9.68624 8.93862 10.0714C9.48061 11.4049 10.1451 12.6737 10.9777 13.8503C11.1996 14.1637 11.4261 14.4761 11.7486 14.6974C12.1047 14.9417 12.376 14.861 12.5438 14.4635C12.6513 14.2109 12.6976 13.9409 12.7209 13.6702C12.8007 12.743 12.8102 11.8162 12.6721 10.8927C12.5862 10.3148 12.2612 9.94158 11.6851 9.83233C11.3917 9.77678 11.4347 9.66813 11.5774 9.50056C11.8251 9.21084 12.0571 9.03161 12.5208 9.03161L15.9928 9.031C16.5401 9.13841 16.6628 9.38394 16.7371 9.93514L16.7402 13.7936C16.7337 14.0069 16.8473 14.6391 17.2303 14.7787C17.5372 14.88 17.7397 14.6339 17.9233 14.4396C18.7559 13.556 19.3492 12.5131 19.8804 11.4338C20.1149 10.9577 20.3171 10.4652 20.5136 9.97166C20.6596 9.60675 20.8868 9.42721 21.2986 9.43335L24.642 9.43734C24.7406 9.43734 24.8406 9.43826 24.9382 9.45514C25.5017 9.55151 25.6561 9.79396 25.4817 10.3436C25.2074 11.2073 24.6743 11.9266 24.1531 12.6479C23.5946 13.4201 22.9989 14.1652 22.4458 14.9408C21.9376 15.6497 21.9778 16.0066 22.6088 16.6223Z" fill="#B1986E"/>
	</symbol>
</svg>